<?xml version="1.0" encoding="utf-8"?>
<!-- Generator: Adobe Illustrator 16.0.0, SVG Export Plug-In . SVG Version: 6.00 Build 0)  -->
<svg version="1.2" baseProfile="tiny" id="Layer_1" xmlns="http://www.w3.org/2000/svg" xmlns:xlink="http://www.w3.org/1999/xlink"
	 x="0px" y="0px" width="1045px" height="260px" viewBox="0 0 1045 260" overflow="scroll" xml:space="preserve">
<g>
	<g>
		<g>
			<polygon fill="#0073E7" points="254.381,4.935 254.381,206.305 205.751,206.305 205.751,53.432 52.747,53.432 52.747,4.935 			
				"/>
			<polygon fill="#0073E7" points="205.751,206.305 205.751,254.934 4.25,254.934 4.25,53.432 52.747,53.432 52.747,206.305 			"/>
			<polygon fill="#0073E7" points="429.788,112.999 429.788,4.935 409.493,4.935 371.803,58.439 334.771,4.935 313.816,4.935 
				313.816,112.999 334.771,112.999 334.771,41.835 365.214,86.772 378.26,86.772 408.704,41.835 408.704,112.999 			"/>
			<polygon fill="#0073E7" points="484.084,112.999 505.039,112.999 505.039,4.935 484.084,4.935 			"/>
			<path fill="#0073E7" d="M665.291,101.929V77.943h-21.087V91.78h-63.785V25.756h63.785v13.705h21.087V15.608
				c0-6.589-4.351-10.807-10.806-10.807h-84.081c-5.8,0-10.146,4.349-10.146,10.807v86.189c0,5.797,4.347,10.805,10.146,10.805
				h84.738C660.94,112.999,665.291,108.518,665.291,101.929L665.291,101.929z"/>
			<path fill="#0073E7" d="M825.543,112.999l-31.892-43.49h21.085c5.799,0,10.807-4.349,10.807-10.938V15.081
				c0-6.457-4.348-10.806-10.807-10.806h-95.018v107.933h21.086V68.719h26.094l31.893,43.489h26.883v0.791H825.543z M740.672,26.021
				h63.785v22.535h-63.785V26.021L740.672,26.021z"/>
			<path fill="#0073E7" d="M985.663,101.929v-86.32c0-6.589-4.349-10.807-10.808-10.807h-84.738
				c-5.797,0-10.146,4.349-10.146,10.807v86.189c0,5.797,4.35,10.805,10.146,10.805h85.398
				C981.314,112.999,985.663,108.518,985.663,101.929L985.663,101.929z M900.792,26.021h63.786v66.024h-63.786V26.021
				L900.792,26.021z"/>
			<polygon fill="#0073E7" points="419.509,167.953 419.509,146.207 313.816,146.207 313.816,254.142 334.771,254.142 
				334.771,211.441 397.764,211.441 397.764,189.699 334.771,189.699 334.771,167.953 			"/>
			<path fill="#0073E7" d="M554.459,244.127v-86.979c0-6.591-4.35-10.805-10.808-10.805h-84.08c-5.798,0-10.146,4.345-10.146,10.805
				v86.19c0,5.795,4.349,10.804,10.146,10.804h84.872C550.109,254.142,554.459,249.793,554.459,244.127L554.459,244.127z
				 M470.378,167.953h62.995v65.895h-63.785v-65.895H470.378z"/>
			<path fill="#0073E7" d="M698.632,244.127v-23.855h-21.085v13.707h-63.785v-65.894h63.916v13.838h21.085v-23.983
				c0-6.461-4.347-10.81-10.804-10.81h-84.872c-5.798,0-10.146,4.349-10.146,10.81v86.319c0,5.797,4.349,10.806,10.146,10.806
				h84.741C693.492,254.142,698.632,249.793,698.632,244.127L698.632,244.127z"/>
			<path fill="#0073E7" d="M842.148,244.127v-97.784h-21.087v86.976h-63.784v-86.976h-20.953v97.126
				c0,5.795,4.348,10.804,10.147,10.804h84.738C837.798,254.142,842.148,249.793,842.148,244.127L842.148,244.127z"/>
			<path fill="#0073E7" d="M985.663,244.127v-42.831c0-5.8-4.349-10.806-10.808-10.806h-73.929v-22.405h63.782v11.595h20.954v-21.74
				c0-6.461-4.349-10.81-10.808-10.81h-84.738c-5.797,0-10.146,4.349-10.146,10.81v42.828c0,5.8,4.35,10.809,10.146,10.809h73.933
				v22.402h-63.783v-10.806H879.18v21.743c0,5.8,4.35,10.809,10.148,10.809h84.739C981.314,254.142,985.663,249.793,985.663,244.127
				L985.663,244.127z"/>
		</g>
		<g>
			<path fill="#0073E7" d="M1021.246,45.392c-10.808,0-19.503-8.697-19.503-19.636c0-10.938,8.695-19.636,19.503-19.636
				c10.806,0,19.504,8.698,19.504,19.636C1040.75,36.694,1032.052,45.392,1021.246,45.392z M1021.246,7.832
				c-10.147,0-18.186,8.041-18.186,18.188c0,10.146,8.038,17.395,18.186,17.395c10.148,0,17.396-8.038,17.396-17.395
				C1038.51,15.739,1031.26,7.832,1021.246,7.832z M1026.253,38.144l-5.007-10.806h-4.349v10.806h-2.9V13.501h7.249
				c5.798,0,8.038,2.238,8.038,7.248c0,3.689-1.448,5.798-5.007,6.589l5.007,10.806H1026.253z M1016.765,24.438h4.349
				c3.691,0,5.009-1.45,5.009-4.349c0-2.899-1.45-4.351-5.009-4.351h-3.69v8.699H1016.765z"/>
		</g>
	</g>
</g>
</svg>
